<svg width="202" height="53" viewBox="0 0 202 53" fill="none" xmlns="http://www.w3.org/2000/svg">
<path d="M0.608 52V0.735999H14.144V41.056H35.816V52H0.608ZM63.6879 52.648C58.4079 52.648 53.8239 51.568 49.9359 49.408C46.0959 47.248 43.1199 44.2 41.0079 40.264C38.9439 36.328 37.9119 31.672 37.9119 26.296C37.9119 20.968 38.9679 16.336 41.0799 12.4C43.1919 8.464 46.1679 5.44 50.0079 3.328C53.8479 1.168 58.4079 0.0879989 63.6879 0.0879989C68.9679 0.0879989 73.5039 1.168 77.2959 3.328C81.1359 5.44 84.0879 8.464 86.1519 12.4C88.2639 16.336 89.3199 20.968 89.3199 26.296C89.3199 31.672 88.2639 36.328 86.1519 40.264C84.0879 44.2 81.1359 47.248 77.2959 49.408C73.5039 51.568 68.9679 52.648 63.6879 52.648ZM63.6879 42.352C67.4319 42.352 70.4079 41.008 72.6159 38.32C74.8719 35.632 75.9999 31.624 75.9999 26.296C75.9999 21.016 74.8719 17.056 72.6159 14.416C70.4079 11.728 67.4319 10.384 63.6879 10.384C59.9439 10.384 56.9679 11.704 54.7599 14.344C52.5519 16.984 51.4479 20.968 51.4479 26.296C51.4479 31.672 52.5519 35.704 54.7599 38.392C56.9679 41.032 59.9439 42.352 63.6879 42.352ZM123.137 52.648C117.521 52.648 112.673 51.592 108.593 49.48C104.513 47.368 101.369 44.344 99.1614 40.408C96.9534 36.472 95.8494 31.768 95.8494 26.296C95.8494 20.968 96.9534 16.336 99.1614 12.4C101.369 8.464 104.465 5.44 108.449 3.328C112.481 1.168 117.209 0.0879989 122.633 0.0879989C126.329 0.0879989 129.809 0.567998 133.073 1.528C136.385 2.488 139.073 3.808 141.137 5.488L136.889 15.064C134.489 13.528 132.209 12.424 130.049 11.752C127.889 11.032 125.561 10.672 123.065 10.672C118.505 10.672 115.097 11.968 112.841 14.56C110.633 17.104 109.529 21.016 109.529 26.296C109.529 31.768 110.681 35.824 112.985 38.464C115.337 41.104 118.937 42.424 123.785 42.424C125.321 42.424 126.905 42.304 128.537 42.064C130.169 41.824 131.825 41.44 133.505 40.912L130.553 44.8V32.2H121.625V23.056H142.721V48.76C140.897 49.624 138.905 50.344 136.745 50.92C134.633 51.496 132.425 51.928 130.121 52.216C127.817 52.504 125.489 52.648 123.137 52.648ZM175.696 52.648C170.416 52.648 165.832 51.568 161.944 49.408C158.104 47.248 155.128 44.2 153.016 40.264C150.952 36.328 149.92 31.672 149.92 26.296C149.92 20.968 150.976 16.336 153.088 12.4C155.2 8.464 158.176 5.44 162.016 3.328C165.856 1.168 170.416 0.0879989 175.696 0.0879989C180.976 0.0879989 185.512 1.168 189.304 3.328C193.144 5.44 196.096 8.464 198.16 12.4C200.272 16.336 201.328 20.968 201.328 26.296C201.328 31.672 200.272 36.328 198.16 40.264C196.096 44.2 193.144 47.248 189.304 49.408C185.512 51.568 180.976 52.648 175.696 52.648ZM175.696 42.352C179.44 42.352 182.416 41.008 184.624 38.32C186.88 35.632 188.008 31.624 188.008 26.296C188.008 21.016 186.88 17.056 184.624 14.416C182.416 11.728 179.44 10.384 175.696 10.384C171.952 10.384 168.976 11.704 166.768 14.344C164.56 16.984 163.456 20.968 163.456 26.296C163.456 31.672 164.56 35.704 166.768 38.392C168.976 41.032 171.952 42.352 175.696 42.352Z" fill="white"/>
</svg>
